<svg xmlns="http://www.w3.org/2000/svg" viewBox="0 0 24 24"><title>fedora</title><path d="M12 0C5.376 0 .008 5.36 0 11.98v8.207A3.815 3.815 0 0 0 3.813 24h8.354A12 12 0 0 0 24 12 12 12 0 0 0 12 0Zm.275 4.704a4.183 4.18 0 0 1 4.183 4.18 1.046 1.045 0 1 1-2.092 0 2.092 2.09 0 0 0-2.09-2.087h-.05a2.093 2.09 0 0 0-2.092 2.09v2.346h2.236a1.046 1.045 0 0 1 0 2.09h-2.236v3.236A4.183 4.18 0 0 1 6 18.95a1.046 1.045 0 0 1-.001-2.09 2.092 2.09 0 0 0 2.092-2.09v-3.235H5.86a1.046 1.045 0 0 1 0-2.09h2.232V8.884a4.183 4.18 0 0 1 4.183-4.18Z"/></svg>
